<mxfile host="app.diagrams.net" agent="Mozilla/5.0 (iPad; CPU OS 17_5 like Mac OS X) AppleWebKit/605.1.15 (KHTML, like Gecko) CriOS/126.0.6478.153 Mobile/15E148 Safari/604.1" version="24.7.5">
  <diagram name="Página-1" id="TJ4FikJYF3UVwfuTiB4G">
    <mxGraphModel dx="1273" dy="1442" grid="0" gridSize="10" guides="1" tooltips="1" connect="1" arrows="1" fold="1" page="0" pageScale="1" pageWidth="827" pageHeight="1169" math="0" shadow="0">
      <root>
        <mxCell id="0" />
        <mxCell id="1" parent="0" />
        <mxCell id="5gr5MjEQ9wHWlhrczu8M-1" value="Elaboración de una playera" style="rounded=0;whiteSpace=wrap;html=1;" vertex="1" parent="1">
          <mxGeometry x="144" y="57" width="160" height="78" as="geometry" />
        </mxCell>
        <mxCell id="5gr5MjEQ9wHWlhrczu8M-4" value="¿Tenemos tela?" style="rhombus;whiteSpace=wrap;html=1;" vertex="1" parent="1">
          <mxGeometry x="164" y="189" width="120" height="80" as="geometry" />
        </mxCell>
        <mxCell id="5gr5MjEQ9wHWlhrczu8M-6" value="" style="edgeStyle=none;orthogonalLoop=1;jettySize=auto;html=1;rounded=0;fontSize=12;startSize=8;endSize=8;curved=1;entryX=0.5;entryY=0;entryDx=0;entryDy=0;exitX=0.5;exitY=1;exitDx=0;exitDy=0;" edge="1" parent="1" source="5gr5MjEQ9wHWlhrczu8M-1" target="5gr5MjEQ9wHWlhrczu8M-4">
          <mxGeometry width="120" relative="1" as="geometry">
            <mxPoint x="221" y="140" as="sourcePoint" />
            <mxPoint x="229.55753515239036" y="193.3416432317398" as="targetPoint" />
            <Array as="points" />
          </mxGeometry>
        </mxCell>
        <mxCell id="5gr5MjEQ9wHWlhrczu8M-7" value="" style="edgeStyle=none;orthogonalLoop=1;jettySize=auto;html=1;rounded=0;fontSize=12;startSize=8;endSize=8;curved=1;" edge="1" parent="1">
          <mxGeometry width="120" relative="1" as="geometry">
            <mxPoint x="284" y="229.89" as="sourcePoint" />
            <mxPoint x="357" y="229" as="targetPoint" />
            <Array as="points" />
          </mxGeometry>
        </mxCell>
        <mxCell id="5gr5MjEQ9wHWlhrczu8M-8" value="" style="edgeStyle=none;orthogonalLoop=1;jettySize=auto;html=1;rounded=0;fontSize=12;startSize=8;endSize=8;curved=1;" edge="1" parent="1" target="5gr5MjEQ9wHWlhrczu8M-14">
          <mxGeometry width="120" relative="1" as="geometry">
            <mxPoint x="223.96" y="270" as="sourcePoint" />
            <mxPoint x="223" y="347" as="targetPoint" />
            <Array as="points" />
          </mxGeometry>
        </mxCell>
        <mxCell id="5gr5MjEQ9wHWlhrczu8M-9" value="Compramos la tela" style="rounded=0;whiteSpace=wrap;html=1;" vertex="1" parent="1">
          <mxGeometry x="358" y="209" width="72" height="49" as="geometry" />
        </mxCell>
        <mxCell id="5gr5MjEQ9wHWlhrczu8M-10" value="No" style="text;html=1;align=center;verticalAlign=middle;resizable=0;points=[];autosize=1;strokeColor=none;fillColor=none;fontSize=16;" vertex="1" parent="1">
          <mxGeometry x="293" y="206" width="38" height="31" as="geometry" />
        </mxCell>
        <mxCell id="5gr5MjEQ9wHWlhrczu8M-13" value="Si" style="text;html=1;align=center;verticalAlign=middle;resizable=0;points=[];autosize=1;strokeColor=none;fillColor=none;fontSize=16;" vertex="1" parent="1">
          <mxGeometry x="217.5" y="276.5" width="32" height="31" as="geometry" />
        </mxCell>
        <mxCell id="5gr5MjEQ9wHWlhrczu8M-25" value="" style="edgeStyle=none;curved=1;rounded=0;orthogonalLoop=1;jettySize=auto;html=1;fontSize=12;startSize=8;endSize=8;" edge="1" parent="1" source="5gr5MjEQ9wHWlhrczu8M-14" target="5gr5MjEQ9wHWlhrczu8M-24">
          <mxGeometry relative="1" as="geometry" />
        </mxCell>
        <mxCell id="5gr5MjEQ9wHWlhrczu8M-14" value="Dibujamos los patrones" style="rounded=0;whiteSpace=wrap;html=1;" vertex="1" parent="1">
          <mxGeometry x="179" y="307" width="92" height="84" as="geometry" />
        </mxCell>
        <mxCell id="5gr5MjEQ9wHWlhrczu8M-17" value="" style="edgeStyle=none;orthogonalLoop=1;jettySize=auto;html=1;rounded=0;fontSize=12;startSize=8;endSize=8;curved=1;exitX=0.5;exitY=1;exitDx=0;exitDy=0;movable=1;resizable=1;rotatable=1;deletable=1;editable=1;locked=0;connectable=1;" edge="1" parent="1">
          <mxGeometry width="120" relative="1" as="geometry">
            <mxPoint x="396.0000000000001" y="258" as="sourcePoint" />
            <mxPoint x="396.26" y="349" as="targetPoint" />
            <Array as="points">
              <mxPoint x="396" y="311" />
            </Array>
          </mxGeometry>
        </mxCell>
        <mxCell id="5gr5MjEQ9wHWlhrczu8M-22" value="" style="edgeStyle=none;orthogonalLoop=1;jettySize=auto;html=1;rounded=0;fontSize=12;startSize=8;endSize=8;curved=1;" edge="1" parent="1">
          <mxGeometry width="120" relative="1" as="geometry">
            <mxPoint x="396" y="350" as="sourcePoint" />
            <mxPoint x="270" y="348.5" as="targetPoint" />
            <Array as="points" />
          </mxGeometry>
        </mxCell>
        <mxCell id="5gr5MjEQ9wHWlhrczu8M-30" value="" style="edgeStyle=none;curved=1;rounded=0;orthogonalLoop=1;jettySize=auto;html=1;fontSize=12;startSize=8;endSize=8;" edge="1" parent="1" source="5gr5MjEQ9wHWlhrczu8M-24" target="5gr5MjEQ9wHWlhrczu8M-29">
          <mxGeometry relative="1" as="geometry" />
        </mxCell>
        <mxCell id="5gr5MjEQ9wHWlhrczu8M-53" value="" style="edgeStyle=none;curved=1;rounded=0;orthogonalLoop=1;jettySize=auto;html=1;fontSize=12;startSize=8;endSize=8;exitX=0;exitY=0.75;exitDx=0;exitDy=0;" edge="1" parent="1" source="5gr5MjEQ9wHWlhrczu8M-24" target="5gr5MjEQ9wHWlhrczu8M-55">
          <mxGeometry relative="1" as="geometry">
            <mxPoint x="185" y="500.9999999999999" as="sourcePoint" />
            <mxPoint x="79" y="501" as="targetPoint" />
          </mxGeometry>
        </mxCell>
        <mxCell id="5gr5MjEQ9wHWlhrczu8M-54" value="" style="edgeStyle=none;curved=1;rounded=0;orthogonalLoop=1;jettySize=auto;html=1;fontSize=12;startSize=8;endSize=8;" edge="1" parent="1">
          <mxGeometry relative="1" as="geometry">
            <mxPoint x="180" y="460" as="sourcePoint" />
            <mxPoint x="34" y="460" as="targetPoint" />
          </mxGeometry>
        </mxCell>
        <mxCell id="5gr5MjEQ9wHWlhrczu8M-24" value="Recortamos los patrones" style="rounded=0;whiteSpace=wrap;html=1;" vertex="1" parent="1">
          <mxGeometry x="182" y="449" width="92" height="84" as="geometry" />
        </mxCell>
        <mxCell id="5gr5MjEQ9wHWlhrczu8M-32" value="" style="edgeStyle=none;curved=1;rounded=0;orthogonalLoop=1;jettySize=auto;html=1;fontSize=12;startSize=8;endSize=8;" edge="1" parent="1" source="5gr5MjEQ9wHWlhrczu8M-29" target="5gr5MjEQ9wHWlhrczu8M-31">
          <mxGeometry relative="1" as="geometry" />
        </mxCell>
        <mxCell id="5gr5MjEQ9wHWlhrczu8M-35" value="" style="edgeStyle=none;curved=1;rounded=0;orthogonalLoop=1;jettySize=auto;html=1;fontSize=12;startSize=8;endSize=8;" edge="1" parent="1" source="5gr5MjEQ9wHWlhrczu8M-29" target="5gr5MjEQ9wHWlhrczu8M-34">
          <mxGeometry relative="1" as="geometry" />
        </mxCell>
        <mxCell id="5gr5MjEQ9wHWlhrczu8M-29" value="¿Tendrá algún bordado?" style="rhombus;whiteSpace=wrap;html=1;rounded=0;" vertex="1" parent="1">
          <mxGeometry x="181" y="592" width="93" height="80" as="geometry" />
        </mxCell>
        <mxCell id="5gr5MjEQ9wHWlhrczu8M-43" value="" style="edgeStyle=none;curved=1;rounded=0;orthogonalLoop=1;jettySize=auto;html=1;fontSize=12;startSize=8;endSize=8;" edge="1" parent="1" source="5gr5MjEQ9wHWlhrczu8M-31" target="5gr5MjEQ9wHWlhrczu8M-42">
          <mxGeometry relative="1" as="geometry" />
        </mxCell>
        <mxCell id="5gr5MjEQ9wHWlhrczu8M-31" value="Pegamos el frente de la playera con la parte trasera" style="rounded=0;whiteSpace=wrap;html=1;" vertex="1" parent="1">
          <mxGeometry x="167.5" y="743" width="120" height="60" as="geometry" />
        </mxCell>
        <mxCell id="5gr5MjEQ9wHWlhrczu8M-33" value="No" style="text;html=1;align=center;verticalAlign=middle;resizable=0;points=[];autosize=1;strokeColor=none;fillColor=none;fontSize=16;" vertex="1" parent="1">
          <mxGeometry x="217.5" y="681" width="38" height="31" as="geometry" />
        </mxCell>
        <mxCell id="5gr5MjEQ9wHWlhrczu8M-38" value="" style="edgeStyle=none;curved=1;rounded=0;orthogonalLoop=1;jettySize=auto;html=1;fontSize=12;startSize=8;endSize=8;" edge="1" parent="1" source="5gr5MjEQ9wHWlhrczu8M-34" target="5gr5MjEQ9wHWlhrczu8M-37">
          <mxGeometry relative="1" as="geometry" />
        </mxCell>
        <mxCell id="5gr5MjEQ9wHWlhrczu8M-36" value="Si" style="text;html=1;align=center;verticalAlign=middle;resizable=0;points=[];autosize=1;strokeColor=none;fillColor=none;fontSize=16;" vertex="1" parent="1">
          <mxGeometry x="302.5" y="607.5" width="32" height="31" as="geometry" />
        </mxCell>
        <mxCell id="5gr5MjEQ9wHWlhrczu8M-40" value="" style="edgeStyle=none;curved=1;rounded=0;orthogonalLoop=1;jettySize=auto;html=1;fontSize=12;startSize=8;endSize=8;" edge="1" parent="1" source="5gr5MjEQ9wHWlhrczu8M-37">
          <mxGeometry relative="1" as="geometry">
            <mxPoint x="414" y="776" as="targetPoint" />
          </mxGeometry>
        </mxCell>
        <mxCell id="5gr5MjEQ9wHWlhrczu8M-37" value="Esperamos a que esté listo la parte&amp;nbsp;" style="whiteSpace=wrap;html=1;rounded=0;" vertex="1" parent="1">
          <mxGeometry x="370" y="691" width="90" height="43" as="geometry" />
        </mxCell>
        <mxCell id="5gr5MjEQ9wHWlhrczu8M-41" value="" style="edgeStyle=none;orthogonalLoop=1;jettySize=auto;html=1;rounded=0;fontSize=12;startSize=8;endSize=8;curved=1;" edge="1" parent="1">
          <mxGeometry width="120" relative="1" as="geometry">
            <mxPoint x="411.5" y="775" as="sourcePoint" />
            <mxPoint x="287.5" y="775" as="targetPoint" />
            <Array as="points">
              <mxPoint x="359.5" y="775" />
            </Array>
          </mxGeometry>
        </mxCell>
        <mxCell id="5gr5MjEQ9wHWlhrczu8M-34" value="Enviamos la parte a bordar a la bordadora" style="whiteSpace=wrap;html=1;rounded=0;" vertex="1" parent="1">
          <mxGeometry x="355" y="600" width="120" height="60" as="geometry" />
        </mxCell>
        <mxCell id="5gr5MjEQ9wHWlhrczu8M-45" value="" style="edgeStyle=none;curved=1;rounded=0;orthogonalLoop=1;jettySize=auto;html=1;fontSize=12;startSize=8;endSize=8;" edge="1" parent="1" source="5gr5MjEQ9wHWlhrczu8M-42" target="5gr5MjEQ9wHWlhrczu8M-44">
          <mxGeometry relative="1" as="geometry" />
        </mxCell>
        <mxCell id="5gr5MjEQ9wHWlhrczu8M-42" value="Repasamos la costura" style="rounded=0;whiteSpace=wrap;html=1;" vertex="1" parent="1">
          <mxGeometry x="168" y="862" width="120" height="60" as="geometry" />
        </mxCell>
        <mxCell id="5gr5MjEQ9wHWlhrczu8M-47" value="" style="edgeStyle=none;curved=1;rounded=0;orthogonalLoop=1;jettySize=auto;html=1;fontSize=12;startSize=8;endSize=8;" edge="1" parent="1" source="5gr5MjEQ9wHWlhrczu8M-44" target="5gr5MjEQ9wHWlhrczu8M-46">
          <mxGeometry relative="1" as="geometry" />
        </mxCell>
        <mxCell id="5gr5MjEQ9wHWlhrczu8M-44" value="Pegado de cuello&amp;nbsp;" style="whiteSpace=wrap;html=1;rounded=0;" vertex="1" parent="1">
          <mxGeometry x="175.5" y="1019" width="104" height="54" as="geometry" />
        </mxCell>
        <mxCell id="5gr5MjEQ9wHWlhrczu8M-49" value="" style="edgeStyle=none;curved=1;rounded=0;orthogonalLoop=1;jettySize=auto;html=1;fontSize=12;startSize=8;endSize=8;" edge="1" parent="1" source="5gr5MjEQ9wHWlhrczu8M-46" target="5gr5MjEQ9wHWlhrczu8M-48">
          <mxGeometry relative="1" as="geometry" />
        </mxCell>
        <mxCell id="5gr5MjEQ9wHWlhrczu8M-46" value="Costura de repaso de cuello&amp;nbsp;" style="whiteSpace=wrap;html=1;rounded=0;" vertex="1" parent="1">
          <mxGeometry x="173" y="1149" width="104" height="44" as="geometry" />
        </mxCell>
        <mxCell id="5gr5MjEQ9wHWlhrczu8M-68" value="" style="edgeStyle=none;curved=1;rounded=0;orthogonalLoop=1;jettySize=auto;html=1;fontSize=12;startSize=8;endSize=8;" edge="1" parent="1" source="5gr5MjEQ9wHWlhrczu8M-48" target="5gr5MjEQ9wHWlhrczu8M-67">
          <mxGeometry relative="1" as="geometry" />
        </mxCell>
        <mxCell id="5gr5MjEQ9wHWlhrczu8M-48" value="Pegado de mangas a el cuerpo" style="whiteSpace=wrap;html=1;rounded=0;" vertex="1" parent="1">
          <mxGeometry x="156.5" y="1280" width="143" height="65" as="geometry" />
        </mxCell>
        <mxCell id="5gr5MjEQ9wHWlhrczu8M-66" value="" style="edgeStyle=none;curved=1;rounded=0;orthogonalLoop=1;jettySize=auto;html=1;fontSize=12;startSize=8;endSize=8;" edge="1" parent="1" source="5gr5MjEQ9wHWlhrczu8M-50" target="5gr5MjEQ9wHWlhrczu8M-48">
          <mxGeometry relative="1" as="geometry" />
        </mxCell>
        <mxCell id="5gr5MjEQ9wHWlhrczu8M-50" value="Pegado de puño con la manga" style="whiteSpace=wrap;html=1;rounded=0;" vertex="1" parent="1">
          <mxGeometry x="-71" y="1291" width="139" height="43" as="geometry" />
        </mxCell>
        <mxCell id="5gr5MjEQ9wHWlhrczu8M-65" value="" style="edgeStyle=none;curved=1;rounded=0;orthogonalLoop=1;jettySize=auto;html=1;fontSize=12;startSize=8;endSize=8;entryX=0.5;entryY=0;entryDx=0;entryDy=0;" edge="1" parent="1" target="5gr5MjEQ9wHWlhrczu8M-50">
          <mxGeometry relative="1" as="geometry">
            <mxPoint x="-13.314121037463792" y="471" as="sourcePoint" />
            <mxPoint x="-13" y="975" as="targetPoint" />
          </mxGeometry>
        </mxCell>
        <mxCell id="5gr5MjEQ9wHWlhrczu8M-52" value="Mangas" style="whiteSpace=wrap;html=1;rounded=0;" vertex="1" parent="1">
          <mxGeometry x="-65" y="420" width="94" height="57" as="geometry" />
        </mxCell>
        <mxCell id="5gr5MjEQ9wHWlhrczu8M-59" value="" style="edgeStyle=none;curved=1;rounded=0;orthogonalLoop=1;jettySize=auto;html=1;fontSize=12;startSize=8;endSize=8;" edge="1" parent="1" source="5gr5MjEQ9wHWlhrczu8M-55" target="5gr5MjEQ9wHWlhrczu8M-60">
          <mxGeometry relative="1" as="geometry">
            <mxPoint x="67" y="588" as="targetPoint" />
          </mxGeometry>
        </mxCell>
        <mxCell id="5gr5MjEQ9wHWlhrczu8M-55" value="Frente" style="rounded=0;whiteSpace=wrap;html=1;" vertex="1" parent="1">
          <mxGeometry x="29" y="493" width="76" height="37" as="geometry" />
        </mxCell>
        <mxCell id="5gr5MjEQ9wHWlhrczu8M-62" value="" style="edgeStyle=none;curved=1;rounded=0;orthogonalLoop=1;jettySize=auto;html=1;fontSize=12;startSize=8;endSize=8;" edge="1" parent="1" source="5gr5MjEQ9wHWlhrczu8M-60">
          <mxGeometry relative="1" as="geometry">
            <mxPoint x="70" y="775" as="targetPoint" />
          </mxGeometry>
        </mxCell>
        <mxCell id="5gr5MjEQ9wHWlhrczu8M-60" value="Trasera" style="rounded=0;whiteSpace=wrap;html=1;" vertex="1" parent="1">
          <mxGeometry x="26.5" y="556" width="81" height="39" as="geometry" />
        </mxCell>
        <mxCell id="5gr5MjEQ9wHWlhrczu8M-63" value="" style="edgeStyle=none;orthogonalLoop=1;jettySize=auto;html=1;rounded=0;fontSize=12;startSize=8;endSize=8;curved=1;" edge="1" parent="1">
          <mxGeometry width="120" relative="1" as="geometry">
            <mxPoint x="70" y="771" as="sourcePoint" />
            <mxPoint x="167.5" y="772.69" as="targetPoint" />
            <Array as="points" />
          </mxGeometry>
        </mxCell>
        <mxCell id="5gr5MjEQ9wHWlhrczu8M-70" value="" style="edgeStyle=none;curved=1;rounded=0;orthogonalLoop=1;jettySize=auto;html=1;fontSize=12;startSize=8;endSize=8;" edge="1" parent="1" source="5gr5MjEQ9wHWlhrczu8M-67" target="5gr5MjEQ9wHWlhrczu8M-69">
          <mxGeometry relative="1" as="geometry" />
        </mxCell>
        <mxCell id="5gr5MjEQ9wHWlhrczu8M-81" value="" style="edgeStyle=none;curved=1;rounded=0;orthogonalLoop=1;jettySize=auto;html=1;fontSize=12;startSize=8;endSize=8;" edge="1" parent="1" source="5gr5MjEQ9wHWlhrczu8M-69" target="5gr5MjEQ9wHWlhrczu8M-80">
          <mxGeometry relative="1" as="geometry" />
        </mxCell>
        <mxCell id="5gr5MjEQ9wHWlhrczu8M-69" value="Cerrado de prenda de manera horizontal&amp;nbsp;" style="whiteSpace=wrap;html=1;rounded=0;" vertex="1" parent="1">
          <mxGeometry x="165" y="1568" width="120" height="60" as="geometry" />
        </mxCell>
        <mxCell id="5gr5MjEQ9wHWlhrczu8M-67" value="Cerrado de prenda de manera vertical" style="whiteSpace=wrap;html=1;rounded=0;" vertex="1" parent="1">
          <mxGeometry x="156.5" y="1427" width="143" height="65" as="geometry" />
        </mxCell>
        <mxCell id="5gr5MjEQ9wHWlhrczu8M-75" value="" style="edgeStyle=none;curved=1;rounded=0;orthogonalLoop=1;jettySize=auto;html=1;fontSize=12;startSize=8;endSize=8;" edge="1" parent="1" source="5gr5MjEQ9wHWlhrczu8M-72" target="5gr5MjEQ9wHWlhrczu8M-74">
          <mxGeometry relative="1" as="geometry" />
        </mxCell>
        <mxCell id="5gr5MjEQ9wHWlhrczu8M-72" value="Planchado de prenda" style="whiteSpace=wrap;html=1;rounded=0;" vertex="1" parent="1">
          <mxGeometry x="164" y="1800" width="120" height="60" as="geometry" />
        </mxCell>
        <mxCell id="5gr5MjEQ9wHWlhrczu8M-77" value="" style="edgeStyle=none;curved=1;rounded=0;orthogonalLoop=1;jettySize=auto;html=1;fontSize=12;startSize=8;endSize=8;" edge="1" parent="1" source="5gr5MjEQ9wHWlhrczu8M-74" target="5gr5MjEQ9wHWlhrczu8M-76">
          <mxGeometry relative="1" as="geometry" />
        </mxCell>
        <mxCell id="5gr5MjEQ9wHWlhrczu8M-74" value="Doblado de prenda" style="whiteSpace=wrap;html=1;rounded=0;" vertex="1" parent="1">
          <mxGeometry x="159.5" y="1940" width="120" height="60" as="geometry" />
        </mxCell>
        <mxCell id="5gr5MjEQ9wHWlhrczu8M-79" value="" style="edgeStyle=none;curved=1;rounded=0;orthogonalLoop=1;jettySize=auto;html=1;fontSize=12;startSize=8;endSize=8;" edge="1" parent="1" source="5gr5MjEQ9wHWlhrczu8M-76" target="5gr5MjEQ9wHWlhrczu8M-78">
          <mxGeometry relative="1" as="geometry" />
        </mxCell>
        <mxCell id="5gr5MjEQ9wHWlhrczu8M-76" value="Envoltura de prenda&amp;nbsp;" style="whiteSpace=wrap;html=1;rounded=0;" vertex="1" parent="1">
          <mxGeometry x="159.5" y="2103" width="120" height="60" as="geometry" />
        </mxCell>
        <mxCell id="5gr5MjEQ9wHWlhrczu8M-100" value="" style="edgeStyle=none;curved=1;rounded=0;orthogonalLoop=1;jettySize=auto;html=1;fontSize=12;startSize=8;endSize=8;" edge="1" parent="1" source="5gr5MjEQ9wHWlhrczu8M-78" target="5gr5MjEQ9wHWlhrczu8M-99">
          <mxGeometry relative="1" as="geometry" />
        </mxCell>
        <mxCell id="5gr5MjEQ9wHWlhrczu8M-78" value="Listo para la venta" style="whiteSpace=wrap;html=1;rounded=0;" vertex="1" parent="1">
          <mxGeometry x="159.5" y="2251" width="120" height="60" as="geometry" />
        </mxCell>
        <mxCell id="5gr5MjEQ9wHWlhrczu8M-84" value="" style="edgeStyle=none;curved=1;rounded=0;orthogonalLoop=1;jettySize=auto;html=1;fontSize=12;startSize=8;endSize=8;" edge="1" parent="1" source="5gr5MjEQ9wHWlhrczu8M-80" target="5gr5MjEQ9wHWlhrczu8M-72">
          <mxGeometry relative="1" as="geometry" />
        </mxCell>
        <mxCell id="5gr5MjEQ9wHWlhrczu8M-80" value="Revisamos si tiene alguna falla" style="rhombus;whiteSpace=wrap;html=1;rounded=0;" vertex="1" parent="1">
          <mxGeometry x="136" y="1667" width="182" height="83" as="geometry" />
        </mxCell>
        <mxCell id="5gr5MjEQ9wHWlhrczu8M-93" value="" style="edgeStyle=none;curved=1;rounded=0;orthogonalLoop=1;jettySize=auto;html=1;fontSize=12;startSize=8;endSize=8;" edge="1" parent="1" source="5gr5MjEQ9wHWlhrczu8M-82" target="5gr5MjEQ9wHWlhrczu8M-92">
          <mxGeometry relative="1" as="geometry" />
        </mxCell>
        <mxCell id="5gr5MjEQ9wHWlhrczu8M-82" value="Lo devolvemos al área que tiene el error" style="whiteSpace=wrap;html=1;rounded=0;" vertex="1" parent="1">
          <mxGeometry x="389" y="1687" width="107" height="53" as="geometry" />
        </mxCell>
        <mxCell id="5gr5MjEQ9wHWlhrczu8M-85" value="No" style="text;html=1;align=center;verticalAlign=middle;resizable=0;points=[];autosize=1;strokeColor=none;fillColor=none;fontSize=16;" vertex="1" parent="1">
          <mxGeometry x="214.5" y="1750" width="38" height="31" as="geometry" />
        </mxCell>
        <mxCell id="5gr5MjEQ9wHWlhrczu8M-89" value="" style="group" vertex="1" connectable="0" parent="1">
          <mxGeometry x="316" y="1689" width="70" height="31" as="geometry" />
        </mxCell>
        <mxCell id="5gr5MjEQ9wHWlhrczu8M-83" value="" style="edgeStyle=none;curved=1;rounded=0;orthogonalLoop=1;jettySize=auto;html=1;fontSize=12;startSize=8;endSize=8;" edge="1" parent="5gr5MjEQ9wHWlhrczu8M-89">
          <mxGeometry relative="1" as="geometry">
            <mxPoint y="19.282323819146313" as="sourcePoint" />
            <mxPoint x="70" y="20.71310185185166" as="targetPoint" />
          </mxGeometry>
        </mxCell>
        <mxCell id="5gr5MjEQ9wHWlhrczu8M-87" value="Si" style="text;html=1;align=center;verticalAlign=middle;resizable=0;points=[];autosize=1;strokeColor=none;fillColor=none;fontSize=16;" vertex="1" parent="5gr5MjEQ9wHWlhrczu8M-89">
          <mxGeometry x="15.061941915597947" y="-3" width="32" height="31" as="geometry" />
        </mxCell>
        <mxCell id="5gr5MjEQ9wHWlhrczu8M-95" value="" style="edgeStyle=none;curved=1;rounded=0;orthogonalLoop=1;jettySize=auto;html=1;fontSize=12;startSize=8;endSize=8;" edge="1" parent="1" source="5gr5MjEQ9wHWlhrczu8M-92" target="5gr5MjEQ9wHWlhrczu8M-72">
          <mxGeometry relative="1" as="geometry" />
        </mxCell>
        <mxCell id="5gr5MjEQ9wHWlhrczu8M-92" value="Se soluciona el error" style="whiteSpace=wrap;html=1;rounded=0;" vertex="1" parent="1">
          <mxGeometry x="385" y="1805" width="111" height="55" as="geometry" />
        </mxCell>
        <mxCell id="5gr5MjEQ9wHWlhrczu8M-98" value="" style="edgeStyle=none;curved=1;rounded=0;orthogonalLoop=1;jettySize=auto;html=1;fontSize=12;startSize=8;endSize=8;" edge="1" parent="1" source="5gr5MjEQ9wHWlhrczu8M-97" target="5gr5MjEQ9wHWlhrczu8M-1">
          <mxGeometry relative="1" as="geometry" />
        </mxCell>
        <mxCell id="5gr5MjEQ9wHWlhrczu8M-97" value="Inicio" style="ellipse;whiteSpace=wrap;html=1;" vertex="1" parent="1">
          <mxGeometry x="185" y="-89" width="80" height="80" as="geometry" />
        </mxCell>
        <mxCell id="5gr5MjEQ9wHWlhrczu8M-99" value="Fin" style="ellipse;whiteSpace=wrap;html=1;rounded=0;" vertex="1" parent="1">
          <mxGeometry x="179.5" y="2421" width="80" height="80" as="geometry" />
        </mxCell>
      </root>
    </mxGraphModel>
  </diagram>
</mxfile>
